#!OML:ASF I:\Actors\actors\Patient Classification 1\Patient 1\Session 1\Subject1.ASF
:FULLY-SPECIFIED
:DEGREES
827
root 0.843582 17.5112 8.76189 6.73391 -0.253465 -7.82748
lowerback -1.86245 0.311172 6.62876
upperback -10.9318 0.859236 1.96096
thorax -10.5891 -0.0755125 -1.64738
lowerneck -13.9089 -3.3513 -1.18387
upperneck 30.3464 -5.97623 4.15522
head 12.5353 -2.27645 0.900194
rclavicle -1.09829e-014 9.34288e-015
rhumerus 22.7451 56.2848 -58.6332
rradius 121.031
rwrist 17.9258
rhand -33.3168 328.022
rfingers 7.12502
rthumb -6.52004 -61.8579
lclavicle -1.09829e-014 9.34288e-015
lhumerus 14.4355 -60.4397 64.1506
lradius 120.237
lwrist -7.79577
lhand -48.3996 -66.8495
lfingers 7.12502
lthumb -21.0523 322.028
rfemur -4.12395 22.7038 25.4233
rtibia 8.91145
rfoot -13.8907 -19.5512
rtoes 0.0592139
lfemur 3.70635 -33.3885 -11.2166
ltibia -1.42276
lfoot -11.4271 40.6298
ltoes -3.10289
828
root 0.839583 17.5122 8.75364 6.68307 -0.269844 -7.80624
lowerback -1.48288 0.399457 6.79636
upperback -11.1511 1.01619 1.75661
thorax -11.0587 -0.0438654 -1.97128
lowerneck -13.5711 -3.47797 -1.19111
upperneck 30.3375 -6.19518 4.2656
head 12.4736 -2.36748 0.916602
rclavicle -1.06847e-014 1.94809e-014
rhumerus 23.3623 56.3073 -57.2441
rradius 120.133
rwrist 20.2287
rhand -35.2475 330.585
rfingers 7.12502
rthumb -8.38363 -59.2285
lclavicle -1.06847e-014 1.94809e-014
lhumerus 17.885 -61.5467 59.4607
lradius 120.15
lwrist -10.7585
lhand -50.0029 -70.4264
lfingers 7.12502
lthumb -22.5918 318.272
rfemur -4.15106 22.7151 25.4215
rtibia 9.00052
rfoot -13.8418 -19.5626
rtoes -0.134976
lfemur 3.73066 -33.4385 -11.2532
ltibia -1.4028
lfoot -11.4372 40.6803
ltoes -3.12711
829
root 0.834482 17.5133 8.74507 6.70193 -0.251329 -7.8261
lowerback -1.31674 0.41793 6.83616
upperback -11.2367 1.05592 1.67079
thorax -11.255 -0.0409845 -2.08949
lowerneck -13.4482 -3.56862 -1.15881
upperneck 30.2554 -6.33748 4.28308
head 12.4192 -2.42959 0.898399
rclavicle 5.86415e-015 -2.24627e-014
rhumerus 25.1521 56.3875 -54.9049
rradius 119.824
rwrist 22.0917
rhand -36.9923 331.163
rfingers 7.12502
rthumb -10.0672 -58.5762
lclavicle 5.86415e-015 -2.24627e-014
lhumerus 21.795 -62.2147 54.3449
lradius 119.872
lwrist -13.3919
lhand -51.4558 -73.2066
lfingers 7.12502
lthumb -23.9857 315.315
rfemur -4.24766 22.7315 25.4452
rtibia 9.07398
rfoot -13.7975 -19.6039
rtoes -0.430616
lfemur 3.64326 -33.4636 -11.1626
ltibia -1.37598
lfoot -11.4796 40.6976
ltoes -3.08579
830
root 0.829726 17.5143 8.73822 6.73614 -0.233559 -7.8369
lowerback -1.18857 0.400326 6.76624
upperback -11.2756 1.04207 1.66485
thorax -11.379 -0.0458321 -2.05668
lowerneck -13.3628 -3.61821 -1.11503
upperneck 30.0864 -6.38721 4.21111
head 12.3297 -2.46185 0.857324
rclavicle 1.91827e-014 -2.62396e-014
rhumerus 27.2726 56.4437 -52.2795
rradius 119.497
rwrist 23.6469
rhand -39.2051 330.757
rfingers 7.12502
rthumb -12.2014 -58.8667
lclavicle 1.91827e-014 -2.62396e-014
lhumerus 25.7633 -62.3179 49.3034
lradius 119.767
lwrist -14.4207
lhand -51.1119 -75.1669
lfingers 7.12502
lthumb -23.6559 313.398
rfemur -4.33535 22.7023 25.4505
rtibia 9.11344
rfoot -13.7552 -19.5933
rtoes -0.648523
lfemur 3.55584 -33.431 -11.075
ltibia -1.3696
lfoot -11.4558 40.6605
ltoes -3.11472
831
root 0.825809 17.5159 8.73323 6.76027 -0.245387 -7.87787
lowerback -1.27232 0.359108 6.6091
upperback -11.1449 0.972284 1.76715
thorax -11.1809 -0.0503172 -1.85429
lowerneck -13.3606 -3.65968 -1.22667
upperneck 29.7849 -6.40603 4.24001
head 12.2131 -2.48598 0.883697
rclavicle -9.93923e-017 8.94531e-015
rhumerus 31.608 58.7033 -46.6717
rradius 119.841
rwrist 30.0186
rhand -39.4132 311.763
rfingers 7.12502
rthumb -12.4021 -77.8489
lclavicle -9.93923e-017 8.94531e-015
lhumerus 29.7793 -61.9251 44.3
lradius 119.703
lwrist -15.3962
lhand -51.0226 -76.8059
lfingers 7.12502
lthumb -23.5703 311.77
rfemur -4.38935 22.6936 25.4906
rtibia 9.12453
rfoot -13.7697 -19.5383
rtoes -0.353696
lfemur 3.54943 -33.4789 -11.0054
ltibia -1.41724
lfoot -11.3674 40.7388
ltoes -3.30672
832
root 0.823012 17.5165 8.72868 6.78561 -0.243216 -7.9103
lowerback -1.79661 0.256895 6.27414
upperback -10.6946 0.766751 1.99812
thorax -10.3575 -0.0763893 -1.40842
lowerneck -13.5373 -3.52201 -1.22071
upperneck 29.3267 -6.16092 4.20321
head 12.0554 -2.38573 0.900241
rclavicle -1.06847e-014 2.40529e-014
rhumerus 35.3431 58.213 -42.6097
rradius 119.81
rwrist 30.8767
rhand -40.0067 311.07
rfingers 7.12502
rthumb -12.9743 -78.5069
lclavicle -1.06847e-014 2.40529e-014
lhumerus 34.0084 -60.7936 39.2612
lradius 119.606
lwrist -16.5499
lhand -51.3483 -78.4059
lfingers 7.12502
lthumb -23.8827 310.129
rfemur -4.4354 22.6616 25.5095
rtibia 9.11104
rfoot -13.815 -19.4731
rtoes -0.0743677
lfemur 3.5352 -33.5609 -10.9469
ltibia -1.46167
lfoot -11.3291 40.8383
ltoes -3.23079
833
root 0.82071 17.517 8.72415 6.81476 -0.233617 -7.91626
lowerback -1.69829 0.265554 6.25943
upperback -10.707 0.781581 1.93134
thorax -10.4286 -0.0736214 -1.47309
lowerneck -13.3767 -3.63144 -1.36186
upperneck 29.2391 -6.33617 4.39106
head 12.0065 -2.46144 0.971775
rclavicle -1.14798e-014 1.94809e-014
rhumerus 37.1407 57.8608 -40.1529
rradius 119.883
rwrist 32.1635
rhand -40.3423 310.14
rfingers 7.12502
rthumb -13.2977 -79.416
lclavicle -1.14798e-014 1.94809e-014
lhumerus 37.6688 -60.3482 34.8377
lradius 119.558
lwrist -18.0404
lhand -51.9396 -79.3326
lfingers 7.12502
lthumb -24.4496 309.127
rfemur -4.49979 22.588 25.4899
rtibia 9.12716
rfoot -13.8476 -19.3966
rtoes -0.119687
lfemur 3.48321 -33.6282 -10.9016
ltibia -1.45769
lfoot -11.495 40.8679
ltoes -2.64874
834
root 0.818862 17.5186 8.72002 6.86666 -0.204943 -7.9884
lowerback -1.63708 0.280917 6.3681
upperback -10.7304 0.807886 1.86171
thorax -10.4907 -0.0765397 -1.60977
lowerneck -13.2901 -3.74717 -1.57295
upperneck 29.3492 -6.52728 4.613
head 12.0569 -2.54225 1.06501
rclavicle -7.05686e-015 8.54774e-015
rhumerus 38.6725 57.3344 -38.1124
rradius 120.102
rwrist 33.3268
rhand -40.4468 308.987
rfingers 7.12502
rthumb -13.3985 -80.562
lclavicle -7.05686e-015 8.54774e-015
lhumerus 40.9516 -59.7896 31.0359
lradius 119.433
lwrist -19.9902
lhand -53.2139 -78.1958
lfingers 7.12502
lthumb -25.6706 310.093
rfemur -4.59151 22.5831 25.5503
rtibia 9.16027
rfoot -13.8562 -19.3948
rtoes -0.0821004
lfemur 3.36402 -33.6481 -10.7396
ltibia -1.42769
lfoot -11.5916 40.8525
ltoes -2.3603
835
root 0.817159 17.5204 8.71497 6.93911 -0.13088 -8.07546
lowerback -1.63126 0.271463 6.40272
upperback -10.7457 0.798918 1.87012
thorax -10.5132 -0.0843324 -1.61908
lowerneck -13.2878 -3.76507 -2.02932
upperneck 29.6518 -6.60538 5.09336
head 12.2186 -2.56055 1.31405
rclavicle -1.06847e-014 1.51076e-014
rhumerus 40.3079 56.7165 -36.1473
rradius 120.379
rwrist 34.4551
rhand -40.4459 308.002
rfingers 7.12502
rthumb -13.3976 -81.5469
lclavicle -1.06847e-014 1.51076e-014
lhumerus 43.6488 -59.018 28.1175
lradius 119.791
lwrist -20.0489
lhand -52.9793 -82.4535
lfingers 7.12502
lthumb -25.446 305.868
rfemur -4.69474 22.6367 25.623
rtibia 9.16487
rfoot -13.8452 -19.4757
rtoes 0.340776
lfemur 3.15989 -33.6087 -10.5047
ltibia -1.38627
lfoot -11.4789 40.7819
ltoes -2.60446
